<?xml version="1.0" encoding="UTF-8"?>
<svg width="300px" height="300px" viewBox="0 0 300 300" version="1.1" xmlns="http://www.w3.org/2000/svg" xmlns:xlink="http://www.w3.org/1999/xlink">
    <title>Slice</title>
    <defs>
        <linearGradient x1="100%" y1="0%" x2="37.9830729%" y2="83.3450521%" id="linearGradient-1">
            <stop stop-color="#32C5FF" offset="0%"></stop>
            <stop stop-color="#37BFFE" offset="6.22322593%"></stop>
            <stop stop-color="#B620E0" offset="51.2583893%"></stop>
            <stop stop-color="#F7B500" offset="100%"></stop>
        </linearGradient>
        <clipPath id="Group">
            <polygon points="156.040268 4.54747351e-13 206.375839 4.54747351e-13 206.375839 195.06897 156.040268 300"></polygon>
            <polygon transform="translate(234.060403, 25.000000) rotate(-270.000000) translate(-234.060403, -25.000000) " points="209.060403 -40.9395973 259.060403 -16.9210754 259.060403 90.9395973 209.060403 90.9395973"></polygon>
            <polygon transform="translate(213.963533, 115.000000) rotate(-270.000000) translate(-213.963533, -115.000000) " points="188.963533 72.2521235 238.963533 96.2706454 238.963533 157.747876 188.963533 157.747876"></polygon>
            <polygon points="93.6241611 4.54747351e-13 143.959732 4.54747351e-13 143.959732 300 97.147651 173.03125"></polygon>
            <polygon points="0 4.54747351e-13 50.3355705 4.54747351e-13 139.563949 185.944453 143.959732 300"></polygon>
        </clipPath>
    </defs>
    <rect clip-path="url(#Group)" id="Rectangle" fill="url(#linearGradient-1)" x="0" y="0" width="300" height="300"></rect>
</svg>
